<svg width="200" height="200" viewBox="0 0 200 200" fill="none" xmlns="http://www.w3.org/2000/svg">
  <circle cx="100" cy="100" r="95" fill="#FFB300" stroke="#333" stroke-width="8"/>
  <ellipse cx="60" cy="80" rx="24" ry="32" fill="#fff" stroke="#333" stroke-width="4"/>
  <ellipse cx="140" cy="80" rx="24" ry="32" fill="#fff" stroke="#333" stroke-width="4"/>
  <ellipse cx="60" cy="84" rx="7" ry="10" fill="#333"/>
  <ellipse cx="140" cy="84" rx="7" ry="10" fill="#333"/>
  <ellipse cx="100" cy="130" rx="30" ry="24" fill="#fff" stroke="#333" stroke-width="4"/>
  <ellipse cx="85" cy="128" rx="5" ry="8" fill="#333"/>
  <ellipse cx="115" cy="128" rx="5" ry="8" fill="#333"/>
  <path d="M80 150 Q100 165 120 150" stroke="#333" stroke-width="4" fill="none"/>
  <path d="M60 75 Q80 55 100 75" stroke="#333" stroke-width="3" fill="none"/>
  <path d="M140 75 Q120 55 100 75" stroke="#333" stroke-width="3" fill="none"/>
  <!-- Tiger stripes -->
  <path d="M100 40 Q105 70 100 80" stroke="#333" stroke-width="4" fill="none"/>
  <path d="M85 55 Q90 65 85 75" stroke="#333" stroke-width="3" fill="none"/>
  <path d="M115 55 Q110 65 115 75" stroke="#333" stroke-width="3" fill="none"/>
  <path d="M60 60 Q50 80 65 80" stroke="#333" stroke-width="3" fill="none"/>
  <path d="M140 60 Q150 80 135 80" stroke="#333" stroke-width="3" fill="none"/>
</svg>